# Blender v2.79 (sub 0) OBJ File: 'mese.blend'
# www.blender.org
mtllib mese.mtl
o Cube.001_Cube.000
v -0.037377 -0.465559 0.027220
v 0.013168 0.494350 0.026303
v -0.056905 -0.463855 -0.007563
v -0.000562 0.494404 -0.012522
v -0.002657 -0.468587 0.007563
v 0.052054 0.494194 0.012524
v -0.022244 -0.466879 -0.027220
v 0.038272 0.494249 -0.026300
v -0.234527 0.032532 0.257987
v -0.256799 0.033662 -0.235636
v 0.236269 0.008635 -0.257985
v 0.258592 0.007502 0.235639
v -0.041293 -0.514356 0.030072
v -0.062867 -0.512474 0.008422
v -0.000621 0.546198 0.013893
v 0.014549 0.546138 0.029059
v -0.062867 -0.512474 -0.008356
v -0.041227 -0.514362 -0.030072
v 0.014605 0.546137 -0.029056
v -0.000621 0.546198 -0.013834
v -0.002934 -0.517702 0.008356
v -0.024574 -0.515814 0.030072
v 0.042283 0.546026 0.029059
v 0.057509 0.545965 0.013837
v -0.024574 -0.515814 -0.030072
v -0.002934 -0.517702 -0.008356
v 0.057509 0.545965 -0.013834
v 0.042283 0.546026 -0.029056
v -0.259101 0.035927 0.285021
v -0.283707 0.037176 0.260387
v -0.285168 -0.003376 0.260129
v -0.260561 -0.004625 0.284763
v -0.260505 -0.004628 -0.284760
v -0.285168 -0.003376 -0.260070
v -0.283707 0.037176 -0.260328
v -0.259044 0.035925 -0.285018
v 0.283714 -0.032251 -0.260070
v 0.259051 -0.030999 -0.284760
v 0.261027 0.009527 -0.285018
v 0.285690 0.008275 -0.260328
v 0.259051 -0.030999 0.284763
v 0.283714 -0.032251 0.260072
v 0.285690 0.008275 0.260330
v 0.261027 0.009527 0.285021
v 0.007836 0.533098 0.045223
v -0.016805 0.533196 0.020589
v -0.016805 0.533196 -0.020529
v 0.007892 0.533097 -0.045220
v 0.073661 0.532834 0.020532
v 0.048964 0.532933 0.045223
v 0.048964 0.532933 -0.045220
v 0.073661 0.532834 -0.020529
v -0.018888 -0.506325 0.042058
v 0.009748 -0.508823 0.013321
v -0.074072 -0.501512 0.013387
v -0.045501 -0.504004 0.042058
v -0.045435 -0.504010 -0.042058
v -0.074072 -0.501512 -0.013320
v 0.009748 -0.508823 -0.013320
v -0.018888 -0.506325 -0.042058
vt 0.668469 0.248921
vt 0.711793 0.011658
vt 0.737463 0.000000
vt 1.000000 0.128295
vt 0.000000 0.248791
vt 0.049626 0.013093
vt 0.074586 0.000000
vt 0.334098 0.133391
vt 0.668469 0.748290
vt 0.710991 0.512990
vt 0.735849 0.499887
vt 0.998851 0.625695
vt 0.318189 0.494060
vt 0.295560 0.506205
vt 0.998851 0.986998
vt 0.976803 1.000000
vt 1.000000 0.486094
vt 0.978319 0.499887
vt 0.630403 0.008008
vt 0.643269 0.000000
vt 0.668469 0.012503
vt 0.655608 0.020497
vt 0.311428 0.511188
vt 0.334098 0.499030
vt 0.406209 0.510503
vt 0.383867 0.498065
vt 0.334098 0.256595
vt 0.668469 0.371560
vt 0.459373 0.558499
vt 0.250168 0.558499
vt 0.250168 0.344040
vt 0.459373 0.344040
vt 0.006681 0.558499
vt 0.215947 0.558499
vt 0.215947 0.571595
vt 0.006681 0.571595
vt 0.702798 0.558499
vt 0.493593 0.558499
vt 0.493593 0.344040
vt 0.702798 0.344040
vt 0.006681 0.344040
vt 0.215947 0.344040
vt 0.215947 0.786409
vt 0.006681 0.786409
vt 0.946285 0.786409
vt 0.737019 0.786409
vt 0.737019 0.571595
vt 0.946285 0.571595
vt 0.459373 0.786409
vt 0.250168 0.786409
vt 0.250168 0.571595
vt 0.459373 0.571595
vt 0.702798 0.786409
vt 0.493593 0.786409
vt 0.493593 0.571595
vt 0.702798 0.571595
vt 0.946285 0.558499
vt 0.737019 0.558499
vt 0.737019 0.344040
vt 0.946285 0.344040
vt 0.135123 0.834034
vt 0.147916 0.848217
vt 0.147043 0.872484
vt 0.133335 0.885514
vt 0.109132 0.885238
vt 0.095711 0.871754
vt 0.095593 0.846966
vt 0.109596 0.832673
vt 0.980419 0.558499
vt 0.980419 0.571595
vt 0.980419 0.786409
vt 0.980419 0.344040
vt 0.246060 0.633716
vt 0.229676 0.616521
vt 0.229960 0.603635
vt 0.246684 0.587115
vt 0.259513 0.587162
vt 0.275918 0.603892
vt 0.275740 0.616780
vt 0.259158 0.633637
vt 0.077526 0.840359
vt 0.100363 0.815150
vt 0.102273 0.902667
vt 0.078503 0.879571
vt 0.142953 0.817106
vt 0.165278 0.841356
vt 0.164218 0.879750
vt 0.140650 0.902667
vt 0.104643 0.814351
vt 0.287163 0.621165
vt 0.264232 0.644749
vt 0.240484 0.644331
vt 0.218554 0.620963
vt 0.218689 0.599167
vt 0.241862 0.575912
vt 0.263878 0.575769
vt 0.287163 0.599118
vt 0.242300 0.645608
vn 0.7488 -0.0370 0.6618
vn 0.5126 0.7765 0.3664
vn -0.3373 0.8047 0.4885
vn -0.6610 0.0402 0.7493
vn -0.7473 0.0449 -0.6629
vn -0.4575 0.8089 -0.3692
vn 0.3980 0.7802 -0.4826
vn 0.6617 -0.0322 -0.7490
vn 0.2928 -0.8131 -0.5030
vn -0.5585 -0.7539 -0.3460
vn 0.4488 -0.8242 0.3454
vn -0.3969 -0.7652 0.5069
vn 0.8655 -0.3193 -0.3860
vn 0.8655 -0.3193 0.3860
vn 0.6636 -0.7017 0.2593
vn 0.6636 -0.7017 -0.2594
vn -0.3988 -0.2556 0.8807
vn 0.3699 -0.2944 0.8812
vn 0.3960 0.2358 0.8874
vn -0.3776 0.2740 0.8845
vn -0.3988 -0.2556 -0.8807
vn 0.3699 -0.2944 -0.8812
vn 0.2108 -0.6699 -0.7119
vn -0.3034 -0.6341 -0.7112
vn -0.3034 -0.6341 0.7112
vn 0.2108 -0.6699 0.7119
vn 0.2804 0.6384 0.7168
vn -0.2432 0.6537 0.7165
vn -0.6961 0.6691 0.2602
vn -0.6961 0.6691 -0.2602
vn -0.8738 0.2973 -0.3847
vn -0.8738 0.2973 0.3847
vn 0.7361 0.6234 -0.2636
vn 0.7361 0.6234 0.2636
vn 0.8961 0.2124 0.3897
vn 0.8961 0.2124 -0.3897
vn -0.2432 0.6537 -0.7165
vn 0.2804 0.6384 -0.7168
vn 0.3960 0.2358 -0.8874
vn -0.3776 0.2740 -0.8845
vn -0.8941 -0.2308 0.3837
vn -0.8941 -0.2308 -0.3837
vn -0.7559 -0.6025 -0.2562
vn -0.7559 -0.6025 0.2562
vn 0.1497 0.9235 0.3531
vn 0.3564 0.9228 0.1462
vn 0.3564 0.9228 -0.1462
vn 0.1497 0.9235 -0.3531
vn -0.1428 0.9245 -0.3534
vn -0.3500 0.9252 -0.1465
vn -0.3500 0.9252 0.1465
vn -0.1428 0.9245 0.3534
vn -0.2271 -0.9052 0.3591
vn -0.4360 -0.8876 0.1484
vn -0.4360 -0.8876 -0.1484
vn -0.2271 -0.9052 -0.3591
vn 0.0696 -0.9303 -0.3601
vn 0.2805 -0.9481 -0.1495
vn 0.2805 -0.9481 0.1495
vn 0.0696 -0.9303 0.3601
usemtl Material
s 1
f 12/1/1 6/2/2 2/3/3 9/4/4
f 10/5/5 4/6/6 8/7/7 11/8/8
f 11/9/8 8/10/7 6/11/2 12/12/1
f 7/13/9 3/14/10 10/5/5 11/8/8
f 5/15/11 7/16/9 11/9/8 12/12/1
f 9/4/4 1/17/12 5/18/11 12/1/1
f 2/19/3 6/20/2 8/21/7 4/22/6
f 1/23/12 3/14/10 7/13/9 5/24/11
f 3/25/10 1/26/12 9/27/4 10/28/5
f 9/27/4 2/19/3 4/22/6 10/28/5
usemtl Material.001
f 37/29/13 42/30/14 54/31/15 59/32/16
f 32/33/17 41/34/18 44/35/19 29/36/20
f 33/37/21 38/38/22 60/39/23 57/40/24
f 41/34/18 32/33/17 56/41/25 53/42/26
f 50/43/27 45/44/28 29/36/20 44/35/19
f 46/45/29 47/46/30 35/47/31 30/48/32
f 52/49/33 49/50/34 43/51/35 40/52/36
f 48/53/37 51/54/38 39/55/39 36/56/40
f 31/57/41 34/58/42 58/59/43 55/60/44
f 34/58/42 31/57/41 30/48/32 35/47/31
f 42/30/14 37/29/13 40/52/36 43/51/35
f 38/38/22 33/37/21 36/56/40 39/55/39
f 23/61/45 24/62/46 27/63/47 28/64/48 19/65/49 20/66/50 15/67/51 16/68/52
f 30/48/32 31/57/41 32/69/17 29/70/20
f 42/30/14 43/51/35 44/35/19 41/34/18
f 38/38/22 39/55/39 40/52/36 37/29/13
f 34/58/42 35/47/31 36/56/40 33/37/21
f 29/70/20 45/71/28 46/45/29 30/48/32
f 48/53/37 36/56/40 35/47/31 47/46/30
f 54/31/15 42/30/14 41/34/18 53/42/26
f 31/57/41 55/60/44 56/72/25 32/69/17
f 43/51/35 49/50/34 50/43/27 44/35/19
f 33/37/21 57/40/24 58/59/43 34/58/42
f 52/49/33 40/52/36 39/55/39 51/54/38
f 37/29/13 59/32/16 60/39/23 38/38/22
f 13/73/53 14/74/54 17/75/55 18/76/56 25/77/57 26/78/58 21/79/59 22/80/60
f 16/68/52 15/67/51 46/81/29 45/82/28
f 20/66/50 19/65/49 48/83/37 47/84/30
f 24/62/46 23/61/45 50/85/27 49/86/34
f 28/64/48 27/63/47 52/87/33 51/88/38
f 15/67/51 20/66/50 47/84/30 46/81/29
f 23/61/45 16/68/52 45/89/28 50/85/27
f 27/63/47 24/62/46 49/86/34 52/87/33
f 19/65/49 28/64/48 51/88/38 48/83/37
f 22/80/60 21/79/59 54/90/15 53/91/26
f 14/74/54 13/73/53 56/92/25 55/93/44
f 18/76/56 17/75/55 58/94/43 57/95/24
f 26/78/58 25/77/57 60/96/23 59/97/16
f 13/73/53 22/80/60 53/91/26 56/98/25
f 17/75/55 14/74/54 55/93/44 58/94/43
f 25/77/57 18/76/56 57/95/24 60/96/23
f 21/79/59 26/78/58 59/97/16 54/90/15
